<svg xmlns="http://www.w3.org/2000/svg" width="719.81" height="188.574" viewBox="0 0 4550 1192">
  <defs>
    <style>
      .cls-1 {
        fill: #f3a806;
        fill-rule: evenodd;
      }
    </style>
  </defs>
  <path id="BANGALORE_ESCORT_AGENCY" data-name="BANGALORE ESCORT AGENCY" class="cls-1" d="M146.124,1063.92q17.31-.375,27.627-4.97t15-11.95a29.045,29.045,0,0,0,4.684-15.88,31.141,31.141,0,0,0-4.506-16.92,35.24,35.24,0,0,0-13.1-11.95,68.786,68.786,0,0,0-20.809-7.08,151.2,151.2,0,0,0-27.746-2.295H66.088V1132.1h38.654V1017.07h22.529a57.779,57.779,0,0,1,15.711,1.77q6.1,1.77,8.952,5.59t2.845,10.04a14.478,14.478,0,0,1-2.845,9.13q-2.845,3.69-8.952,5.6a54.39,54.39,0,0,1-15.83,1.91H90.514l0.237,20.84H135.1Zm22.35,63.59q14.168-4.59,21.4-13.72t7.233-22.71a30,30,0,0,0-4.387-15.59q-4.388-7.365-14.288-11.9t-26.382-4.26l-9.011-8.22h-42.33l-0.237,20.84H135.1q8.537,0,13.694,2.3a15.877,15.877,0,0,1,7.589,6.5,19.573,19.573,0,0,1,2.431,9.95,15.507,15.507,0,0,1-2.609,8.79,17.375,17.375,0,0,1-8.181,6.22q-5.575,2.3-14.466,2.29H94.9L80.91,1132.1h52.645Q154.3,1132.1,168.474,1127.51ZM346.343,992.875H320.257L256.347,1132.1H297.61l44.583-112.74ZM420.449,1132.1L356.3,992.875H329.861l4.625,26.485,44.7,112.74h41.262Zm-133.155-51.83v24.1h90v-24.1h-90Zm299.937-87.395v89.985L521.9,992.875H483.245V1132.1H521.9v-89.98l65.214,89.98h38.535V992.875H587.231ZM772.51,1058.57v21.7h30.71v23.14a25.515,25.515,0,0,1-4.98,2.92,36.175,36.175,0,0,1-8.537,2.58,69.047,69.047,0,0,1-12.806,1.01,47.707,47.707,0,0,1-17.014-2.78,29.679,29.679,0,0,1-12.035-8.17,35.618,35.618,0,0,1-7.174-13.53,65.924,65.924,0,0,1-2.431-18.84v-8.42a66.859,66.859,0,0,1,2.372-18.78,37.576,37.576,0,0,1,6.877-13.54,28.176,28.176,0,0,1,11.086-8.17,38.2,38.2,0,0,1,14.762-2.73q10.2,0,16.6,2.73a22.265,22.265,0,0,1,9.9,7.79,29.725,29.725,0,0,1,4.684,12.05h37.231a51.789,51.789,0,0,0-9.426-24.19q-7.649-10.515-22.351-16.5t-37.824-5.977a92.807,92.807,0,0,0-29.643,4.494,65.746,65.746,0,0,0-23.121,13.149,58.745,58.745,0,0,0-15.059,21.18Q699,1042.215,699,1058.38v8.22q0,16.155,5.395,28.69a58.076,58.076,0,0,0,15.355,21.18,67.105,67.105,0,0,0,23.833,13.1,100.794,100.794,0,0,0,30.829,4.44q18.732,0,32.251-3.2a98.785,98.785,0,0,0,22.232-7.7q8.715-4.485,12.983-8.41v-56.13H772.51Zm220.258-65.695H966.682L902.772,1132.1h41.263l44.583-112.74Zm74.1,139.225-64.14-139.225H976.286l4.625,26.485,44.7,112.74h41.26Zm-133.151-51.83v24.1h89.991v-24.1H933.719ZM1155.16,1108v24.1h87.15V1108h-87.15Zm-25.49-115.125V1132.1h38.65V992.875h-38.65Zm310.96,38.005a60.973,60.973,0,0,0-15.35-21.56,68.245,68.245,0,0,0-23.54-13.624,98.174,98.174,0,0,0-60.23,0,68.245,68.245,0,0,0-23.54,13.624,60.973,60.973,0,0,0-15.35,21.56,71.5,71.5,0,0,0-5.46,28.55v6.21a71.117,71.117,0,0,0,5.46,28.5,60.277,60.277,0,0,0,15.47,21.51,69.528,69.528,0,0,0,23.66,13.63,98.042,98.042,0,0,0,60.17,0,68.42,68.42,0,0,0,23.48-13.63,60.315,60.315,0,0,0,15.29-21.51,71.806,71.806,0,0,0,5.4-28.5v-6.21A71.5,71.5,0,0,0,1440.63,1030.88Zm-35.86,53.46a38.919,38.919,0,0,1-6.82,13.81,28.682,28.682,0,0,1-11.09,8.52,37.263,37.263,0,0,1-15,2.86,38.153,38.153,0,0,1-15.35-2.86,28.609,28.609,0,0,1-11.09-8.52,38.919,38.919,0,0,1-6.82-13.81,68.889,68.889,0,0,1-2.31-18.7v-6.4a69.265,69.265,0,0,1,2.31-18.79,38.475,38.475,0,0,1,6.76-13.72,28.215,28.215,0,0,1,10.97-8.37,42.237,42.237,0,0,1,30.35,0,28.506,28.506,0,0,1,11.15,8.37,38.622,38.622,0,0,1,6.88,13.72,67.61,67.61,0,0,1,2.37,18.79v6.4A68.889,68.889,0,0,1,1404.77,1084.34Zm113.48,47.76h38.65V1017.07h27.63a36.651,36.651,0,0,1,14.29,2.44,18.635,18.635,0,0,1,8.71,7.02,19.637,19.637,0,0,1,2.97,10.9,19.34,19.34,0,0,1-2.91,10.67,18.743,18.743,0,0,1-8.59,7.03q-5.7,2.475-14.35,2.48h-41.97l0.23,24.19h56.44l12.57-5.54a77.34,77.34,0,0,0,19.51-8.51,38.072,38.072,0,0,0,12.98-13.29q4.62-8.04,4.62-19.51,0-13.77-7.82-23.14t-22.35-14.154q-14.535-4.78-34.33-4.781h-66.28V1132.1Zm136.95,0v-1.43l-39.37-60.53-40.78.09,38.77,61.87h41.38Zm94.1-24.1v24.1h91.89V1108H1749.3Zm-25.49-115.125V1132.1h38.65V992.875h-38.65Zm25.49,56.035v23.33h80.03v-23.33H1749.3Zm0-56.035v24.2h92.01v-24.2H1749.3ZM2043.14,1108v24.1h91.89V1108h-91.89Zm-25.49-115.125V1132.1h38.65V992.875h-38.65Zm25.49,56.035v23.33h80.04v-23.33h-80.04Zm0-56.035v24.2h92.01v-24.2h-92.01Zm246.22,110.155a16.819,16.819,0,0,1-8,5.4q-5.4,1.965-14.05,1.96a73.285,73.285,0,0,1-13.52-1.14,28.971,28.971,0,0,1-10.25-3.83,17.9,17.9,0,0,1-6.46-7.03,22.863,22.863,0,0,1-2.26-10.66h-38.65q0,12.045,6.1,20.8a47.407,47.407,0,0,0,16.37,14.39,83.862,83.862,0,0,0,22.94,8.37,122.6,122.6,0,0,0,25.73,2.72,120.183,120.183,0,0,0,25.97-2.58,66.736,66.736,0,0,0,19.98-7.6,37.208,37.208,0,0,0,12.8-12.19,30.534,30.534,0,0,0,4.45-16.45,32.174,32.174,0,0,0-3.74-15.59,38.025,38.025,0,0,0-11.08-12.33,80.619,80.619,0,0,0-18.08-9.75,198.062,198.062,0,0,0-24.61-7.85q-7.935-1.9-14.11-4.01a63.719,63.719,0,0,1-10.37-4.45,21.561,21.561,0,0,1-6.41-5.07,9.44,9.44,0,0,1-2.19-6.07,11.928,11.928,0,0,1,2.91-7.74,19.233,19.233,0,0,1,8.65-5.6,42.87,42.87,0,0,1,14.29-2.05,37.786,37.786,0,0,1,14.64,2.48,19.171,19.171,0,0,1,8.78,6.84,17.617,17.617,0,0,1,2.9,9.99h38.42a34.224,34.224,0,0,0-8.06-22.52q-8.07-9.705-22.47-15.105-14.415-5.4-33.38-5.4a116.544,116.544,0,0,0-26.09,2.725,73.454,73.454,0,0,0-20.63,7.842,41.051,41.051,0,0,0-13.63,12.29,29.439,29.439,0,0,0-.18,32.13,42.93,42.93,0,0,0,12.86,12.04,98.876,98.876,0,0,0,18.68,9.04q10.485,3.87,22.11,6.93a147.124,147.124,0,0,1,16.48,5.02,48.364,48.364,0,0,1,9.73,4.83,13.5,13.5,0,0,1,4.74,5.21,14.97,14.97,0,0,1,1.3,6.36A12.341,12.341,0,0,1,2289.36,1103.03Zm207.34-4.11a21.8,21.8,0,0,1-10.55,7.98q-6.885,2.64-17.2,2.63a40.262,40.262,0,0,1-15.29-2.58,24.017,24.017,0,0,1-10.26-7.84,33.97,33.97,0,0,1-5.75-13.29,88.784,88.784,0,0,1-1.78-19.03v-8.7a79.62,79.62,0,0,1,2.02-19.17,35.406,35.406,0,0,1,6.1-13.34,24.246,24.246,0,0,1,10.32-7.75,39.143,39.143,0,0,1,14.52-2.48q11.385,0,18.26,2.87a20.565,20.565,0,0,1,10.2,8.46,30.054,30.054,0,0,1,3.8,13.72h38.53a51.89,51.89,0,0,0-10.02-25.53q-8.355-11.19-23.53-17.6t-37.24-6.407a88.669,88.669,0,0,0-29.64,4.686,64.536,64.536,0,0,0-22.76,13.487,59.1,59.1,0,0,0-14.59,21.22,73.253,73.253,0,0,0-5.1,28.02v8.51a75.209,75.209,0,0,0,4.92,27.97,57.94,57.94,0,0,0,14.23,21.13,63.008,63.008,0,0,0,22.71,13.44,91.711,91.711,0,0,0,30.35,4.68q21.225,0,36.64-6.16,15.42-6.18,24.13-17.12a44.33,44.33,0,0,0,9.66-25.29h-38.41A26.9,26.9,0,0,1,2496.7,1098.92Zm251.2-68.04a60.973,60.973,0,0,0-15.35-21.56,68.245,68.245,0,0,0-23.54-13.624,98.174,98.174,0,0,0-60.23,0,68.245,68.245,0,0,0-23.54,13.624,60.973,60.973,0,0,0-15.35,21.56,71.5,71.5,0,0,0-5.46,28.55v6.21a71.117,71.117,0,0,0,5.46,28.5,60.277,60.277,0,0,0,15.47,21.51,69.577,69.577,0,0,0,23.65,13.63,98.074,98.074,0,0,0,60.18,0,68.513,68.513,0,0,0,23.48-13.63,60.438,60.438,0,0,0,15.29-21.51,71.806,71.806,0,0,0,5.4-28.5v-6.21A71.5,71.5,0,0,0,2747.9,1030.88Zm-35.87,53.46a38.741,38.741,0,0,1-6.81,13.81,28.682,28.682,0,0,1-11.09,8.52,37.263,37.263,0,0,1-15,2.86,38.153,38.153,0,0,1-15.35-2.86,28.609,28.609,0,0,1-11.09-8.52,38.589,38.589,0,0,1-6.82-13.81,68.889,68.889,0,0,1-2.31-18.7v-6.4a69.265,69.265,0,0,1,2.31-18.79,38.311,38.311,0,0,1,6.76-13.72,28.143,28.143,0,0,1,10.97-8.37,42.238,42.238,0,0,1,30.35,0,28.506,28.506,0,0,1,11.15,8.37,38.622,38.622,0,0,1,6.88,13.72,67.61,67.61,0,0,1,2.37,18.79v6.4A68.479,68.479,0,0,1,2712.03,1084.34Zm113.49,47.76h38.65V1017.07h27.63a36.651,36.651,0,0,1,14.29,2.44,18.635,18.635,0,0,1,8.71,7.02,19.637,19.637,0,0,1,2.97,10.9,19.34,19.34,0,0,1-2.91,10.67,18.794,18.794,0,0,1-8.59,7.03q-5.7,2.475-14.35,2.48h-41.98l0.24,24.19h56.44l12.57-5.54a77.107,77.107,0,0,0,19.5-8.51,38.016,38.016,0,0,0,12.99-13.29q4.62-8.04,4.62-19.51,0-13.77-7.82-23.14t-22.35-14.154q-14.535-4.78-34.33-4.781h-66.28V1132.1Zm136.95,0v-1.43l-39.37-60.53-40.79.09,38.78,61.87h41.38Zm103.94-139.225V1132.1h38.53V992.875h-38.53Zm-51.46,0v24.2h142.52v-24.2H3014.95Zm388.22,0h-26.08L3313.18,1132.1h41.26l44.58-112.74Zm74.11,139.225-64.15-139.225h-26.44l4.63,26.485,44.7,112.74h41.26Zm-133.16-51.83v24.1h90v-24.1h-90Zm263.42-21.7v21.7h30.71v23.14a25.638,25.638,0,0,1-4.98,2.92,36.115,36.115,0,0,1-8.54,2.58,68.894,68.894,0,0,1-12.8,1.01,47.783,47.783,0,0,1-17.02-2.78,29.675,29.675,0,0,1-12.03-8.17,35.53,35.53,0,0,1-7.17-13.53,65.591,65.591,0,0,1-2.44-18.84v-8.42a66.551,66.551,0,0,1,2.38-18.78,37.646,37.646,0,0,1,6.87-13.54,28.218,28.218,0,0,1,11.09-8.17,38.209,38.209,0,0,1,14.76-2.73q10.2,0,16.6,2.73a22.24,22.24,0,0,1,9.9,7.79,29.859,29.859,0,0,1,4.69,12.05h37.23a51.815,51.815,0,0,0-9.43-24.19q-7.65-10.515-22.35-16.5t-37.82-5.977a92.89,92.89,0,0,0-29.65,4.494,65.777,65.777,0,0,0-23.12,13.149,58.82,58.82,0,0,0-15.06,21.18q-5.325,12.525-5.33,28.69v8.22q0,16.155,5.39,28.69a58.134,58.134,0,0,0,15.36,21.18,67.074,67.074,0,0,0,23.83,13.1,100.783,100.783,0,0,0,30.83,4.44q18.735,0,32.25-3.2a98.783,98.783,0,0,0,22.23-7.7q8.715-4.485,12.99-8.41v-56.13h-69.37ZM3777.41,1108v24.1h91.89V1108h-91.89Zm-25.5-115.125V1132.1h38.66V992.875h-38.66Zm25.5,56.035v23.33h80.03v-23.33h-80.03Zm0-56.035v24.2h92.01v-24.2h-92.01Zm263.3,0v89.985l-65.34-89.985h-38.65V1132.1h38.65v-89.98l65.22,89.98h38.53V992.875h-38.41Zm210.53,106.045a21.8,21.8,0,0,1-10.55,7.98q-6.885,2.64-17.2,2.63a40.3,40.3,0,0,1-15.29-2.58,24.017,24.017,0,0,1-10.26-7.84,33.97,33.97,0,0,1-5.75-13.29,89.43,89.43,0,0,1-1.78-19.03v-8.7a79.62,79.62,0,0,1,2.02-19.17,35.261,35.261,0,0,1,6.11-13.34,24.156,24.156,0,0,1,10.31-7.75,39.161,39.161,0,0,1,14.53-2.48q11.37,0,18.26,2.87a20.583,20.583,0,0,1,10.19,8.46,30.054,30.054,0,0,1,3.8,13.72h38.53a51.8,51.8,0,0,0-10.02-25.53q-8.355-11.19-23.53-17.6t-37.23-6.407a88.687,88.687,0,0,0-29.65,4.686,64.536,64.536,0,0,0-22.76,13.487,59.1,59.1,0,0,0-14.59,21.22,73.253,73.253,0,0,0-5.1,28.02v8.51a75.006,75.006,0,0,0,4.93,27.97,57.793,57.793,0,0,0,14.22,21.13,63.093,63.093,0,0,0,22.71,13.44,91.711,91.711,0,0,0,30.35,4.68q21.225,0,36.64-6.16,15.42-6.18,24.13-17.12a44.411,44.411,0,0,0,9.67-25.29h-38.42A26.9,26.9,0,0,1,4251.24,1098.92Zm98.37-106.045,56.2,88.925v50.3h39.25v-50.3l56.08-88.925H4459.4l-34.03,61.965-33.79-61.965h-41.97Z"/>
  <path id="isabasu" class="cls-1" d="M37.042,278.659V844.487H240.01V278.659H37.042Zm18.813-88.64q31.125,22.758,81.7,22.75t82.016-22.75q31.453-22.735,31.453-57.782,0-35.554-31.453-58.312-31.453-22.734-82.016-22.75-50.578,0-81.7,22.75T24.729,132.237Q24.729,167.277,55.854,190.019ZM746.387,716.628q-11.671,12.82-33.718,20.141t-55.11,7.312q-33.093,0-59.672-8.109T554.778,710.1q-16.547-17.766-17.828-46.031h-190q0,46.031,34.687,89.7t103.438,72.422q68.718,28.734,167.937,28.75,69.375,0,124.5-13.063,55.125-13.079,94.672-36.609,39.563-23.532,60.625-54.907a121.254,121.254,0,0,0,21.078-69.031q0-57.516-36.64-92.562t-97.266-54.907Q759.348,513.987,686.09,503q-34.382-5.742-58.046-12.031T589.794,476.6q-14.6-8.109-21.407-17.781a36.818,36.818,0,0,1-6.8-21.7,44.888,44.888,0,0,1,11.344-30.328q11.344-13.077,31.766-20.656,20.438-7.593,47.672-7.594,35.015,0,56.406,9.157t31.781,25.375q10.359,16.218,10.375,38.156H953.247q0-53.32-36.313-94.906-36.328-41.579-103.75-64.844Q745.731,268.2,653.012,268.191q-67.452,0-120.281,14.125-52.851,14.132-89.484,38.7Q406.59,345.6,387.481,377.5q-19.125,31.9-19.125,67.453,0,36.609,18.8,65.11t52.531,49.156q33.7,20.672,79.11,35.047A722.607,722.607,0,0,0,616.7,617.534q55.758,9.938,86.562,19.86t42.8,21.968q12,12.048,12,27.719A42.55,42.55,0,0,1,746.387,716.628Zm698.283,66.938q7.125,36.351,21.41,60.921h204.25V835.6q-14.28-21.421-21.72-50.453-7.455-29.016-7.46-80.282V467.956q0-66.937-37.61-111.125T1501.4,290.425q-64.515-22.219-146.86-22.234-69.39,0-125.15,13.859-55.785,13.875-95.64,38.969-39.9,25.1-61.28,58.047-21.4,32.952-21.39,71.125h202.31q0-21.445,10.69-36.094,10.68-14.625,31.12-22.485,20.445-7.827,48.31-7.843,33.075,0,53.83,10.468T1427.81,423q9.72,18.3,9.73,43.922V709.566A383.63,383.63,0,0,0,1444.67,783.566Zm-83-284.219q-82.365,0-143.95,12.3-61.6,12.281-102.13,36.343-40.545,24.048-60.64,58.563-20.115,34.524-20.09,78.953,0,49.688,32.09,87.859,32.115,38.181,85.92,59.875,53.82,21.7,119.97,21.7,51.21,0,87.86-12.016,36.63-12.024,62.58-31.109,25.92-19.079,42.8-41.313a370.984,370.984,0,0,0,28.53-43.156l-48.64-67.985q0,15.7-15.57,33.735-15.555,18.047-43.76,30.594-28.215,12.563-67.77,12.546-24,0-42.14-7.843-18.165-7.829-28.53-21.7a50.6,50.6,0,0,1-10.37-31.11,82.75,82.75,0,0,1,6.79-33.734q6.8-15.421,21.72-27.188t39.24-18.578q24.315-6.8,58.04-6.8h100.5l-1.29-89.937H1361.67Zm412.97,345.14h181.57l20.75-134.39V41.237H1774.64v803.25Zm623.47-403.968q-16.545-52.548-50.25-91-33.72-38.437-85.28-59.875T2141,268.191q-63.555,0-109.26,21.7a216.281,216.281,0,0,0-76.83,60.406q-31.125,38.718-50.27,90.484a634.786,634.786,0,0,0-29.5,111.375v18.828a634.594,634.594,0,0,0,29.5,111.391q19.125,51.774,50.27,90.469a215.534,215.534,0,0,0,77.15,60.39q46.035,21.7,110.24,21.7,69.375,0,120.61-20.907t84.95-59.359q33.7-38.437,50.25-91.25,16.53-52.828,16.53-117.141V555.3Q2414.64,493.074,2398.11,440.519ZM2207.14,631.644q-5.2,29.813-17.83,51.25-12.645,21.446-36.31,33.2t-61.28,11.765q-49.29,0-78.47-16.984a97.638,97.638,0,0,1-42.14-48.375q-12.975-31.359-13.61-73.219V533.862q0.63-31.381,7.77-57.015,7.125-25.617,22.7-43.656t40.84-27.985q25.29-9.937,61.61-9.937,36.96,0,60.63,12.812a94.809,94.809,0,0,1,36.97,35.047q13.29,22.219,18.79,50.984a324.564,324.564,0,0,1,5.52,61.188v10.984A381.981,381.981,0,0,1,2207.14,631.644Zm692.44,151.922q7.125,36.351,21.41,60.921h204.25V835.6q-14.28-21.421-21.72-50.453-7.455-29.016-7.46-80.282V467.956q0-66.937-37.6-111.125-37.62-44.18-102.15-66.406-64.515-22.219-146.85-22.234-69.4,0-125.16,13.859-55.785,13.875-95.64,38.969-39.9,25.1-61.28,58.047-21.4,32.952-21.39,71.125H2708.3q0-21.445,10.69-36.094,10.68-14.625,31.12-22.485,20.445-7.827,48.31-7.843,33.075,0,53.83,10.468T2882.72,423q9.735,18.3,9.74,43.922V709.566A383.625,383.625,0,0,0,2899.58,783.566Zm-83-284.219q-82.365,0-143.95,12.3-61.605,12.281-102.13,36.343-40.545,24.048-60.64,58.563T2489.77,685.5q0,49.688,32.09,87.859,32.115,38.181,85.92,59.875t119.97,21.7q51.21,0,87.86-12.016,36.63-12.024,62.58-31.109,25.92-19.079,42.8-41.313a370.984,370.984,0,0,0,28.53-43.156l-48.64-67.985q0,15.7-15.57,33.735-15.555,18.047-43.76,30.594-28.215,12.563-67.77,12.546-24,0-42.14-7.843-18.165-7.829-28.53-21.7a50.6,50.6,0,0,1-10.37-31.11,82.75,82.75,0,0,1,6.79-33.734q6.795-15.421,21.72-27.188,14.91-11.764,39.24-18.578,24.33-6.8,58.04-6.8h100.5l-1.29-89.937H2816.58Zm774.15,217.281q-11.685,12.82-33.72,20.141-22.065,7.313-55.11,7.312-33.09,0-59.67-8.109T3399.12,710.1q-16.545-17.766-17.83-46.031h-190q0,46.031,34.69,89.7t103.43,72.422q68.73,28.734,167.94,28.75,69.375,0,124.5-13.063,55.125-13.079,94.67-36.609,39.57-23.532,60.63-54.907a121.309,121.309,0,0,0,21.08-69.031q0-57.516-36.64-92.562t-97.27-54.907Q3603.69,513.987,3530.43,503q-34.38-5.742-58.05-12.031T3434.13,476.6q-14.6-8.109-21.4-17.781a36.758,36.758,0,0,1-6.8-21.7,44.894,44.894,0,0,1,11.34-30.328q11.355-13.077,31.77-20.656t47.67-7.594q35.01,0,56.41,9.157t31.78,25.375q10.35,16.218,10.37,38.156h202.32q0-53.32-36.32-94.906t-103.75-64.844q-67.455-23.274-160.17-23.281-67.455,0-120.28,14.125-52.845,14.132-89.48,38.7-36.66,24.585-55.77,56.484t-19.13,67.453q0,36.609,18.8,65.11t52.53,49.156q33.7,20.672,79.11,35.047a722.524,722.524,0,0,0,97.91,23.265q55.755,9.938,86.56,19.86t42.8,21.968q12,12.048,12,27.719A42.557,42.557,0,0,1,3590.73,716.628Zm744.32,127.859h190.64V278.659h-203.6V708Zm-4.21-183.3q-12.66,30.609-43.46,48.64-30.795,18.046-84.61,18.031a153.217,153.217,0,0,1-39.23-4.7q-17.835-4.687-29.83-14.64a67.826,67.826,0,0,1-18.81-25.36q-6.8-15.421-6.8-37.39V278.659H3905.79V644.722q0,55.968,16.86,95.969,16.845,40.006,47.98,65.359t74.24,37.125q43.125,11.766,95,11.766,64.185,0,112.5-19.61,48.3-19.593,81.06-55.172,32.745-35.554,49.28-83.672,16.53-48.093,16.53-105.109l-55.76,1.047Q4343.48,630.6,4330.84,661.191Z"/>
</svg>
